{"title":"Ferras ft. Katy Perry - Legends Never Die (Live.2014)","uid":11206281,"size":122081809,"categoryP":"video","categoryS":"music_videos","magnet":"?xt=urn:btih:7c04e5760625a7f53444696c5e76e23dd7f87eb8&amp;dn=Ferras+ft.+Katy+Perry+-+Legends+Never+Die+%28Live.2014%29&amp;tr=udp%3A%2F%2Ftracker.openbittorrent.com%3A80&amp;tr=udp%3A%2F%2Fopen.demonii.com%3A1337&amp;tr=udp%3A%2F%2Ftracker.coppersurfer.tk%3A6969&amp;tr=udp%3A%2F%2Fexodus.desync.com%3A6969","seeders":1,"leechers":0,"uploader":"MeRaDil","files":-1,"time":1413222381,"description":"FERRAS &amp; KATY PERRY - LEGENDS NEVER DIE (LIVE PERFORMANCE)\n\n\n\nMPEG4 MUSIC VID\n\n &lt;a href=&quot;\nhttp://gifyu.com/images/Ferras.png&quot; rel=&quot;nofollow&quot; target=&quot;_NEW&quot;&gt;\nhttp://gifyu.com/images/Ferras.png&lt;/a&gt;\n\n\nGeneral\nComplete name                            : Ferras &amp; Katy Perry - Legends Never Die (Live).mp4\nFormat                                   : MPEG-4\nFormat profile                           : Base Media\nCodec ID                                 : isom\nFile size                                : 116 MiB\nDuration                                 : 4mn 34s\nOverall bit rate                         : 3 552 Kbps\nMusicVid name                            : Legends Never Die\nPerformer                                : Ferras &amp; Katy Perry\nGenre                                    : Pop\nContentType                              : Music Video\nRecorded date                            : 2014\nCopyright                                : Ferras &amp; Katy Perry\nCover                                    : Yes\nComment                                  : Live performance Staples Center\nRating                                   : ***\nMake                                     : MeRaDil\noday                                     : 11-10-2014\nrelease                                  : USA - october 11 - 2014\nPart_ID                                  : Legends Never Die (Live performance)\n\nVideo\nID                                       : 1\nFormat                                   : AVC\nFormat/Info                              : Advanced Video Codec\nFormat profile                           : &lt;a class=&quot;__cf_email__&quot; href=&quot;/cdn-cgi/l/email-protection&quot; data-cfemail=&quot;9cd4f5fbf4dcd0a8b2ac&quot;&gt;[email&amp;#160;protected]&lt;/a&gt;&lt;script cf-hash='f9e31' type=&quot;text/javascript&quot;&gt;\n/* &lt;![CDATA[ */!function(){try{var t=&quot;currentScript&quot;in document?document.currentScript:function(){for(var t=document.getElementsByTagName(&quot;script&quot;),e=t.length;e--;)if(t[e].getAttribute(&quot;cf-hash&quot;))return t[e]}();if(t&amp;&amp;t.previousSibling){var e,r,n,i,c=t.previousSibling,a=c.getAttribute(&quot;data-cfemail&quot;);if(a){for(e=&quot;&quot;,r=parseInt(a.substr(0,2),16),n=2;a.length-n;n+=2)i=parseInt(a.substr(n,2),16)^r,e+=String.fromCharCode(i);e=document.createTextNode(e),c.parentNode.replaceChild(e,c)}}}catch(u){}}();/* ]]&gt; */&lt;/script&gt;\nFormat settings, CABAC                   : Yes\nFormat settings, ReFrames                : 2 frames\nCodec ID                                 : avc1\nCodec ID/Info                            : Advanced Video Coding\nDuration                                 : 4mn 34s\nBit rate                                 : 3 287 Kbps\nWidth                                    : 1 920 pixels\nHeight                                   : 1 080 pixels\nDisplay aspect ratio                     : 16:9\nFrame rate mode                          : Constant\nFrame rate                               : 29.970 fps\nColor space                              : YUV\nChroma subsampling                       : 4:2:0\nBit depth                                : 8 bits\nScan type                                : Progressive\nBits/(Pixel*Frame)                       : 0.053\nStream size                              : 108 MiB (93%)\n\nAudio\nID                                       : 2\nFormat                                   : AAC\nFormat/Info                              : Advanced Audio Codec\nFormat profile                           : LC\nCodec ID                                 : 40\nDuration                                 : 4mn 34s\nBit rate mode                            : Constant\nBit rate                                 : 256 Kbps\nChannel(s)                               : 2 channels\nChannel positions                        : Front: L R\nSampling rate                            : 44.1 KHz\nCompression mode                         : Lossy\nStream size                              : 8.39 MiB (7%)\n\nFerras * Katy Perry * Live performance * Ballad\n &lt;a href=&quot;\nhttps://thepiratebay.se/user/MeRaDil&quot; rel=&quot;nofollow&quot; target=&quot;_NEW&quot;&gt;\nhttps://thepiratebay.se/user/MeRaDil&lt;/a&gt;\n\n:)","torrent":{"xt":"urn:btih:7c04e5760625a7f53444696c5e76e23dd7f87eb8","amp;dn":"Ferras+ft.+Katy+Perry+-+Legends+Never+Die+%28Live.2014%29","amp;tr":["udp%3A%2F%2Ftracker.openbittorrent.com%3A80","udp%3A%2F%2Fopen.demonii.com%3A1337","udp%3A%2F%2Ftracker.coppersurfer.tk%3A6969","udp%3A%2F%2Fexodus.desync.com%3A6969"],"infoHash":"7c04e5760625a7f53444696c5e76e23dd7f87eb8","infoHashBuffer":{"type":"Buffer","data":[124,4,229,118,6,37,167,245,52,68,105,108,94,118,226,61,215,248,126,184]},"announce":[],"urlList":[]}}